<svg version="1" xmlns="http://www.w3.org/2000/svg" width="346.667" height="346.667" viewBox="0 0 260.000000 260.000000"><path d="M13.5 7C-.6 14 1.6 34.9 17 39.5c7.9 2.4 16.3-1.4 20.4-9.3.9-1.8 2-3.2 2.4-3.3.4-.1 11.1-.2 23.8-.3l23.2-.1-8.3 4.1c-34.9 17.2-59.7 52.6-63.8 90.9-.3 2.7-.6 5.1-.6 5.2-.1.2-2.5.3-5.4.3-2.9 0-5.8.5-6.5 1.2-1.8 1.8-1.7 30.2.2 31.7.9.8 6.5 1.2 15.7 1.3 18.4.1 17.5 1 17.4-17.8-.1-7.7-.4-14.5-.9-15.2-.4-.7-3-1.2-6.5-1.2h-5.8l.4-4.8c.2-2.6 1.3-8.5 2.5-13.1 7.5-30.9 28.7-57.3 57.5-71.5 7.6-3.7 21.8-8.5 26.5-8.9 3-.2 3.1 0 3.3 4.1.4 6.1 1.7 7.2 8.6 7.2 3.3 0 5.9.1 5.9.3 0 .2-2.6 5.5-5.8 11.8C89 114.9 69 154.6 69 155.4c0 .3 1.7 1.4 3.9 2.5 5.5 2.9 11.7 10.3 16.1 19.6 4.8 10.1 6.3 16.1 7.4 29.7.3 4.5.2 4.8-2.1 4.8-1.3 0-3.5 1.1-4.8 2.5-2.1 2-2.5 3.4-2.5 8 0 6 0 6-7.2 5.5-1.7-.1-3 .5-3.6 1.7-1 2.2-1 21.3.1 23 1.2 1.9 106.2 1.9 107.4.1.4-.7.8-6 .8-11.7.1-11.4-.7-13.4-5.4-13.1-6 .4-6.1.4-6.1-5.4 0-6.4-2-9.4-7-10.5-3.4-.7-3.4-.7-3.1-5.6.1-2.8.3-6.1.5-7.5 1.8-16.7 13.5-37.2 23.6-41.6 2.2-1 4-2.1 4-2.5 0-.4-2.6-5.8-5.8-12-3.3-6.3-16.3-32-29.1-57.2L132.9 40h5.9c7 0 8.5-1.3 8.7-7.3 0-4.2.1-4.2 3.5-3.9 5.6.6 18.8 5.1 27.6 9.4 14.5 7.2 30.5 20.9 38.9 33.4 2.2 3.2 4.3 6.1 4.6 6.4 1.1.9 8.7 17.3 10.4 22.4 2 6 4.2 16.6 4.7 22.1l.3 4-5.8.3c-7.3.4-7.4.6-7.2 17.9 0 10.5.4 13.6 1.6 14.8 2 2.1 29 2.5 31.4.5 2.1-1.7 2.2-30.2.2-31.9-.8-.6-3.7-1.1-6.5-1.2-2.9-.1-5.2-.3-5.3-.3 0-.1-.2-2.1-.5-4.6-3.8-38.2-30.1-75.6-64.1-91.6-3.5-1.6-6.3-3.1-6.3-3.4 0-.3 10.3-.5 23-.5h23l.9 2.6c1.3 3.7 5.2 7.6 9.5 9.4 11.5 4.8 23.2-2.2 24.4-14.6.6-6.9-1.8-12.1-7.6-15.9-9.2-6.1-20.5-3-25.8 7.1-.7 1.5-1.9 2.9-2.6 3.1-1.1.4-70.2.3-71.9-.1-.3 0-.5-2.1-.4-4.6.4-8.1-.4-8.5-17.4-8.5-17.1 0-17.4.1-17.6 8.3l-.1 5.2-35.5.1c-19.5 0-36-.2-36.7-.4-.7-.2-1.9-1.6-2.6-3.1C32.7 5.8 22.7 2.4 13.5 7z"/></svg>