<?xml version="1.0" standalone="no"?>
<!DOCTYPE svg PUBLIC "-//W3C//DTD SVG 20010904//EN"
 "http://www.w3.org/TR/2001/REC-SVG-20010904/DTD/svg10.dtd">
<svg version="1.0" xmlns="http://www.w3.org/2000/svg"
 width="700.000000pt" height="700.000000pt" viewBox="0 0 700.000000 700.000000"
 preserveAspectRatio="xMidYMid meet">
<metadata>
Created by potrace 1.11, written by Peter Selinger 2001-2013
</metadata>
<g transform="translate(0.000000,700.000000) scale(0.100000,-0.100000)"
fill="#000000" stroke="none">
<path d="M870 3500 l0 -2630 225 0 225 0 0 2630 0 2630 -225 0 -225 0 0 -2630z"/>
<path d="M1750 4810 l0 -880 1095 0 1095 0 0 880 0 880 -1095 0 -1095 0 0
-880z"/>
<path d="M1750 2405 l0 -1095 2190 0 2190 0 0 1095 0 1095 -2190 0 -2190 0 0
-1095z m3930 0 l0 -655 -1745 0 -1745 0 0 655 0 655 1745 0 1745 0 0 -655z"/>
</g>
</svg>
