<?xml version="1.0" standalone="no"?>
<!DOCTYPE svg PUBLIC "-//W3C//DTD SVG 20010904//EN"
 "http://www.w3.org/TR/2001/REC-SVG-20010904/DTD/svg10.dtd">
<svg version="1.0" xmlns="http://www.w3.org/2000/svg"
 width="700.000000pt" height="700.000000pt" viewBox="0 0 700.000000 700.000000"
 preserveAspectRatio="xMidYMid meet">
<metadata>
Created by potrace 1.11, written by Peter Selinger 2001-2013
</metadata>
<g transform="translate(0.000000,700.000000) scale(0.100000,-0.100000)"
fill="#000000" stroke="none">
<path d="M440 3500 l0 -3060 435 0 435 0 0 3060 0 3060 -435 0 -435 0 0 -3060z"/>
<path d="M1750 5035 l0 -1095 1315 0 1315 0 -2 1093 -3 1092 -1312 3 -1313 2
0 -1095z"/>
<path d="M1750 2185 l0 -1315 2188 2 2187 3 3 1313 2 1312 -2190 0 -2190 0 0
-1315z m3500 0 l0 -435 -1310 0 -1310 0 0 435 0 435 1310 0 1310 0 0 -435z"/>
</g>
</svg>
