<svg xmlns="http://www.w3.org/2000/svg" viewBox="0 0 150 40" id="clogo"><title>Corbin Logo</title><path d="M10.94,19.39V23c0,8.52,2.45,14,7.49,14,3.75,0,6.76-3.89,9.36-9.91h.83L28.3,37.49h-.51c-.33-.6-.51-.93-1.25-.93C25,36.56,22.42,38,17.32,38,7.51,38,1.49,32.81,1.49,21.75S8,4.62,17.46,4.62c4.82,0,7,1.44,8.66,1.44.74,0,.93-.33,1.25-.93h.51l.37,10h-.83c-2.55-5.69-5.33-9.62-9.31-9.62C13.43,5.55,10.94,9.8,10.94,19.39Z"/><path d="M43.91,15c7.78,0,11.48,3.65,11.48,11.15S51.87,38,43.63,38c-7.77,0-11.71-4.17-11.71-11.39C31.92,19,36.46,15,43.91,15Zm2.59,9.44c0-5-.13-8.61-2.73-8.61-2.82,0-3,3.61-3,8.84v3.61c0,5.37.09,8.84,2.92,8.84,2.64,0,2.77-2.73,2.77-8.75Z"/><path d="M67.86,24.29V36.7h3.29v.83H56.7V36.7h2.55V16.33H56.7V15.5H67.86v4.44a6.21,6.21,0,0,1,6.2-4.9C76.79,15,79,16.47,79,20c0,2.64-1.39,4.4-3.89,4.4-3.1,0-4.58-1.95-3.61-5.23h1.67c.92-1.9,0-2.36-1-2.36C69.94,16.8,67.86,20.13,67.86,24.29Z"/><path d="M90.32,19a6.08,6.08,0,0,1,6.21-4c5.28,0,8.47,3.61,8.47,11.52S101.76,38,95.46,38c-3.19,0-4.76-.88-5.41-3.2l-.33,2.73H79.17V36.7h2.55V3.65H79.17V2.81H90.32Zm0,4.26v8.61c0,2.5,1.07,4.76,3,4.76,2.27,0,2.73-2.73,2.73-9.16V25.08c0-6.53-.55-8-2.12-8C92,17,90.32,19.25,90.32,23.28Z"/><path d="M117.56,15.5V36.7h2.59v.83H106.4V36.7H109V16.33h-2.73V15.5ZM113.39,3.69C116.26,3.69,118,5.13,118,8c0,2.46-1.35,4.35-4.68,4.35-3.75,0-4.63-2.36-4.63-4.3C108.67,5.73,109.92,3.69,113.39,3.69Z"/><path d="M132.33,15.5v4.26c.79-2.32,2.32-4.72,6.9-4.72,4.31,0,7.18,2.12,7.18,7.73V36.7H149v.83H135.9V36.7h1.9v-15c0-3.94-.56-4.4-1.72-4.4-1.94,0-3.75,2.91-3.75,6.66V36.7h2v.83H121.18V36.7h2.54V16.33h-2.54V15.5Z"/></svg>
