<svg id="Layer_1" data-name="Layer 1" xmlns="http://www.w3.org/2000/svg" width="350" height="80" viewBox="0 0 350 80"><defs><style>.cls-1{fill:#261e07;}</style></defs><path class="cls-1" d="M59.9,30.15c-2.94-8.72-8.19-19.22-17-19.22-14.07,0-15.75,22.58-15.75,31.51,0,12.49,2.31,32.34,16.27,32.34,9.35,0,12.61-7.87,17.86-20.37h3.67L63.26,73.94c-6.61,3.57-14.7,4.73-22.68,4.73-13.34,0-22.37-2.21-28.88-8.19C5.5,64.91,2.35,55,2.35,43.59c0-10.4,2.42-20.16,8.72-26.57,6.09-6.3,14.28-10,30.87-10,5.68,0,16.91,1.47,21.64,4.31v18.8Z"/><path class="cls-1" d="M98.91,78.35c-21.74,0-29.62-11.13-29.62-27.93s7.88-28,29.62-28,29.61,11.13,29.61,28S120.64,78.35,98.91,78.35Zm0-3.88c4.93,0,6.51-9.56,6.51-24.16,0-13.86-1.58-23.52-6.51-23.52-5.47,0-6.52,10.5-6.52,23.52C92.39,64.18,93.44,74.47,98.91,74.47Z"/><path class="cls-1" d="M157.61,32.67c5.25-6.51,8.19-10.29,13.34-10.29a8.82,8.82,0,0,1,9.14,8.82c0,6-5.78,12.39-10.82,12.39-2.52,0-3.47-.84-4.62-2.62-1.79-2.94-4-5.15-5.25-5.15-.63,0-1.16.74-1.16,1.89v30c0,5.35.11,5.56,7.25,5.88V77H130.2V73.63c5.36-.32,5.88-.53,5.88-5.88V33.51c0-2.84-.52-4-2.2-4.31l-3-.52V25.32l25.52-2.73Z"/><path class="cls-1" d="M206.28,28.05c7-4.1,11-5.67,16.17-5.67,6.51,0,18.69,3.57,18.69,25.73,0,25-14.17,30.24-30.14,30.24a38.51,38.51,0,0,1-16.38-3.57l-9.56,3.57-.84-.63V12.93c0-2.94-.63-4.1-2.31-4.42L179,8.09V4.73l27.1-2.31.21.32Zm0,38c0,6,2.1,8.4,5.25,8.4C216,74.47,218,66.28,218,52c0-8.5-1.16-21.63-7.46-21.63-2.73,0-4.3,1.36-4.3,4.2Z"/><path class="cls-1" d="M272.91,22.59l.42.31V67.75c0,5.35.53,5.56,5.88,5.88V77H244.77V73.63c5.35-.32,5.88-.53,5.88-5.88V33.51c0-2.84-.53-4-2.21-4.31l-3-.52V25.32Zm-21.53-10.5c0-4.94,4-8.72,10.29-8.72s10.4,3.78,10.4,8.72-4,8.71-10.4,8.71S251.38,17,251.38,12.09Z"/><path class="cls-1" d="M307.67,22.59,309,29.73c6.09-4.1,9.34-7.35,16.7-7.35,11.13,0,16.38,6.51,16.38,16.7V67.75c0,5.35.63,5.56,5.88,5.88V77H316.18V73.63c3.36-.42,3.78-1,3.78-4V40.44c0-7-2-9.35-4.94-9.35-3.36,0-5.46,2.53-5.46,10v27.2c0,2.94.53,4.94,3.78,5.36V77H281.52V73.63c5.36-.32,5.88.31,5.88-5V33.51c0-2.84-.52-4-2.2-4.31l-3.05-.52V25.32Z"/></svg>